<svg width="48" height="22" viewBox="0 0 48 22" fill="none" xmlns="http://www.w3.org/2000/svg">
<g clip-path="url(#clip0_1_158)">
<path d="M0 0.193604V21.8498H4.1545V0.193604H0Z" fill="#E9E5FF"/>
<path d="M13.1946 21.8207C17.6415 21.8207 21.0642 18.3531 21.0642 14.1216C21.0642 9.94938 17.6703 6.45288 13.1946 6.45288C8.77646 6.45288 5.35376 9.92044 5.35376 14.1216C5.35376 18.3531 8.74765 21.8207 13.1946 21.8207ZM13.1946 17.914C11.059 17.914 9.50826 16.2095 9.50826 14.152C9.50826 12.0944 11.059 10.39 13.1946 10.39C15.3302 10.39 16.9097 12.0944 16.9097 14.152C16.9097 16.2095 15.3302 17.9125 13.1946 17.9125V17.914Z" fill="#E9E5FF"/>
<path d="M26.4619 21.8499V13.1386C26.4619 11.4023 27.4566 10.3468 29.0944 10.3468C29.9048 10.3499 30.7008 10.5624 31.4058 10.9639V6.91252C30.6747 6.58913 29.6505 6.41333 28.7141 6.41333C24.4134 6.41333 22.3038 9.26305 22.3038 12.9968V21.8499H26.4619Z" fill="#E9E5FF"/>
<path d="M47.9035 15.3581C48.0377 14.5145 48.0319 13.6545 47.8862 12.8129C47.5735 11.0046 46.6308 9.36684 45.2265 8.19244C43.8222 7.01804 42.0479 6.38351 40.2207 6.40226C38.3935 6.42101 36.6325 7.09181 35.2524 8.29478C33.8723 9.49775 32.9631 11.1545 32.6873 12.9689C32.4114 14.7832 32.7869 16.637 33.7467 18.1989C34.7065 19.7607 36.1879 20.9289 37.9263 21.4945C39.6647 22.0601 41.5466 21.9864 43.2359 21.2865C44.9251 20.5866 46.3115 19.3061 47.1472 17.6739L43.8736 16.0533C43.4975 16.761 42.9218 17.3413 42.2186 17.7216C41.5154 18.1019 40.7161 18.2651 39.9209 18.1909C39.1257 18.1166 38.37 17.8082 37.7486 17.3042C37.1273 16.8003 36.6679 16.1232 36.4282 15.3581H47.9035ZM36.4628 12.8129C36.7376 12.0108 37.2548 11.3149 37.9423 10.8222C38.6298 10.3296 39.4533 10.0648 40.2978 10.0648C41.1423 10.0648 41.9658 10.3296 42.6533 10.8222C43.3408 11.3149 43.858 12.0108 44.1329 12.8129H36.4628Z" fill="#E9E5FF"/>
</g>
<defs>
<clipPath id="clip0_1_158">
<rect width="48" height="21.6774" fill="white" transform="translate(0 0.193604)"/>
</clipPath>
</defs>
</svg>
