<svg width="74" height="34" viewBox="0 0 74 34" fill="none" xmlns="http://www.w3.org/2000/svg">
<g clip-path="url(#clip0_1_1117)">
<path d="M0 0V33.0284H6.32827V0H0Z" fill="#0A0048"/>
<path d="M20.0984 32.9842C26.8721 32.9842 32.0857 27.6958 32.0857 21.2421C32.0857 14.879 26.916 9.54639 20.0984 9.54639C13.3686 9.54639 8.15498 14.8349 8.15498 21.2421C8.15498 27.6958 13.3247 32.9842 20.0984 32.9842ZM20.0984 27.026C16.8454 27.026 14.4833 24.4265 14.4833 21.2885C14.4833 18.1505 16.8454 15.5509 20.0984 15.5509C23.3514 15.5509 25.7574 18.1505 25.7574 21.2885C25.7574 24.4265 23.3514 27.0238 20.0984 27.0238V27.026Z" fill="#0A0048"/>
<path d="M40.3077 33.0284V19.7426C40.3077 17.0946 41.8228 15.4847 44.3177 15.4847C45.5521 15.4894 46.7646 15.8135 47.8384 16.4259V10.247C46.7248 9.75381 45.1647 9.48569 43.7384 9.48569C37.1874 9.48569 33.9739 13.8319 33.9739 19.5264V33.0284H40.3077Z" fill="#0A0048"/>
<path d="M72.9682 23.1278C73.1727 21.8414 73.1638 20.5297 72.9419 19.2462C72.4656 16.4882 71.0296 13.9905 68.8906 12.1994C66.7515 10.4083 64.0488 9.44053 61.2656 9.46912C58.4823 9.49772 55.7999 10.5208 53.6977 12.3555C51.5955 14.1901 50.2105 16.7169 49.7903 19.484C49.3702 22.2512 49.9422 25.0784 51.4042 27.4605C52.8661 29.8425 55.1227 31.624 57.7706 32.4867C60.4186 33.3494 63.2853 33.2369 65.8584 32.1694C68.4314 31.102 70.5432 29.1491 71.8162 26.6597L66.8297 24.1882C66.2569 25.2675 65.3799 26.1526 64.3088 26.7326C63.2377 27.3125 62.0201 27.5615 60.8088 27.4482C59.5975 27.335 58.4465 26.8646 57.5 26.096C56.5536 25.3274 55.8539 24.2948 55.4887 23.1278H72.9682ZM55.5413 19.2462C55.9599 18.0229 56.7478 16.9615 57.7951 16.2102C58.8423 15.4588 60.0966 15.055 61.383 15.055C62.6694 15.055 63.9237 15.4588 64.971 16.2102C66.0182 16.9615 66.8061 18.0229 67.2247 19.2462H55.5413Z" fill="#0A0048"/>
</g>
<defs>
<clipPath id="clip0_1_1117">
<rect width="73.1152" height="33.0608" fill="white"/>
</clipPath>
</defs>
</svg>
